<mxfile host="app.diagrams.net" modified="2024-01-19T03:32:15.616Z" agent="Mozilla/5.0 (Windows NT 10.0; Win64; x64) AppleWebKit/537.36 (KHTML, like Gecko) Chrome/120.0.0.0 Safari/537.36" etag="_Rtaw2bsF8WjJzArqqhP" version="22.1.21" type="device">
  <diagram name="Strona-1" id="cN53jsP2GVnOOzT09-Iv">
    <mxGraphModel dx="2927" dy="1044" grid="1" gridSize="10" guides="1" tooltips="1" connect="1" arrows="1" fold="1" page="1" pageScale="1" pageWidth="827" pageHeight="1169" math="0" shadow="0">
      <root>
        <mxCell id="0" />
        <mxCell id="1" parent="0" />
        <mxCell id="Aqq4quywSJrEDL8EY6Lv-1" value="PlayerType" style="swimlane;fontStyle=1;align=center;verticalAlign=top;childLayout=stackLayout;horizontal=1;startSize=26;horizontalStack=0;resizeParent=1;resizeParentMax=0;resizeLast=0;collapsible=1;marginBottom=0;whiteSpace=wrap;html=1;strokeWidth=3;" parent="1" vertex="1">
          <mxGeometry x="220" y="57" width="240" height="238" as="geometry">
            <mxRectangle x="110" y="70" width="100" height="30" as="alternateBounds" />
          </mxGeometry>
        </mxCell>
        <mxCell id="Aqq4quywSJrEDL8EY6Lv-3" value="" style="line;strokeWidth=1;fillColor=none;align=left;verticalAlign=middle;spacingTop=-1;spacingLeft=3;spacingRight=3;rotatable=0;labelPosition=right;points=[];portConstraint=eastwest;strokeColor=inherit;" parent="Aqq4quywSJrEDL8EY6Lv-1" vertex="1">
          <mxGeometry y="26" width="240" height="8" as="geometry" />
        </mxCell>
        <mxCell id="Aqq4quywSJrEDL8EY6Lv-15" value="ID, NUMBER" style="text;strokeColor=none;fillColor=none;align=left;verticalAlign=top;spacingLeft=4;spacingRight=4;overflow=hidden;rotatable=0;points=[[0,0.5],[1,0.5]];portConstraint=eastwest;whiteSpace=wrap;html=1;strokeWidth=2;fontSize=14;fontStyle=1;fontColor=default;" parent="Aqq4quywSJrEDL8EY6Lv-1" vertex="1">
          <mxGeometry y="34" width="240" height="34" as="geometry" />
        </mxCell>
        <mxCell id="Aqq4quywSJrEDL8EY6Lv-2" value="FIRST_NAME, VARCHAR2(50)&lt;br style=&quot;font-size: 14px;&quot;&gt;" style="text;strokeColor=none;fillColor=none;align=left;verticalAlign=top;spacingLeft=4;spacingRight=4;overflow=hidden;rotatable=0;points=[[0,0.5],[1,0.5]];portConstraint=eastwest;whiteSpace=wrap;html=1;strokeWidth=2;fontSize=14;fontStyle=1;fontColor=default;" parent="Aqq4quywSJrEDL8EY6Lv-1" vertex="1">
          <mxGeometry y="68" width="240" height="34" as="geometry" />
        </mxCell>
        <mxCell id="Aqq4quywSJrEDL8EY6Lv-20" value="LAST_NAME, VARCHAR2(50)" style="text;strokeColor=none;fillColor=none;align=left;verticalAlign=top;spacingLeft=4;spacingRight=4;overflow=hidden;rotatable=0;points=[[0,0.5],[1,0.5]];portConstraint=eastwest;whiteSpace=wrap;html=1;strokeWidth=2;fontSize=14;fontStyle=1;fontColor=default;" parent="Aqq4quywSJrEDL8EY6Lv-1" vertex="1">
          <mxGeometry y="102" width="240" height="34" as="geometry" />
        </mxCell>
        <mxCell id="Aqq4quywSJrEDL8EY6Lv-21" value="BIRTHDATE, DATE" style="text;strokeColor=none;fillColor=none;align=left;verticalAlign=top;spacingLeft=4;spacingRight=4;overflow=hidden;rotatable=0;points=[[0,0.5],[1,0.5]];portConstraint=eastwest;whiteSpace=wrap;html=1;strokeWidth=2;fontSize=14;fontStyle=1;fontColor=default;" parent="Aqq4quywSJrEDL8EY6Lv-1" vertex="1">
          <mxGeometry y="136" width="240" height="34" as="geometry" />
        </mxCell>
        <mxCell id="Aqq4quywSJrEDL8EY6Lv-22" value="POSITION, VARCHA2(10)" style="text;strokeColor=none;fillColor=none;align=left;verticalAlign=top;spacingLeft=4;spacingRight=4;overflow=hidden;rotatable=0;points=[[0,0.5],[1,0.5]];portConstraint=eastwest;whiteSpace=wrap;html=1;strokeWidth=2;fontSize=14;fontStyle=1;fontColor=default;" parent="Aqq4quywSJrEDL8EY6Lv-1" vertex="1">
          <mxGeometry y="170" width="240" height="34" as="geometry" />
        </mxCell>
        <mxCell id="Aqq4quywSJrEDL8EY6Lv-23" value="TEAM_ID, REF TeamType" style="text;strokeColor=none;fillColor=none;align=left;verticalAlign=top;spacingLeft=4;spacingRight=4;overflow=hidden;rotatable=0;points=[[0,0.5],[1,0.5]];portConstraint=eastwest;whiteSpace=wrap;html=1;strokeWidth=2;fontSize=14;fontStyle=1;fontColor=default;" parent="Aqq4quywSJrEDL8EY6Lv-1" vertex="1">
          <mxGeometry y="204" width="240" height="34" as="geometry" />
        </mxCell>
        <mxCell id="Aqq4quywSJrEDL8EY6Lv-7" value="MatchType" style="swimlane;fontStyle=1;align=center;verticalAlign=top;childLayout=stackLayout;horizontal=1;startSize=26;horizontalStack=0;resizeParent=1;resizeParentMax=0;resizeLast=0;collapsible=1;marginBottom=0;whiteSpace=wrap;html=1;strokeWidth=3;" parent="1" vertex="1">
          <mxGeometry x="70" y="500" width="350" height="216" as="geometry" />
        </mxCell>
        <mxCell id="Aqq4quywSJrEDL8EY6Lv-9" value="" style="line;strokeWidth=1;fillColor=none;align=left;verticalAlign=middle;spacingTop=-1;spacingLeft=3;spacingRight=3;rotatable=0;labelPosition=right;points=[];portConstraint=eastwest;strokeColor=inherit;" parent="Aqq4quywSJrEDL8EY6Lv-7" vertex="1">
          <mxGeometry y="26" width="350" height="8" as="geometry" />
        </mxCell>
        <mxCell id="Aqq4quywSJrEDL8EY6Lv-35" value="MATCH_ID, NUMBER" style="text;strokeColor=none;fillColor=none;align=left;verticalAlign=top;spacingLeft=4;spacingRight=4;overflow=hidden;rotatable=0;points=[[0,0.5],[1,0.5]];portConstraint=eastwest;whiteSpace=wrap;html=1;strokeWidth=2;fontSize=14;fontStyle=1;fontColor=default;" parent="Aqq4quywSJrEDL8EY6Lv-7" vertex="1">
          <mxGeometry y="34" width="350" height="26" as="geometry" />
        </mxCell>
        <mxCell id="Aqq4quywSJrEDL8EY6Lv-27" value="MATCH_DATE, DATE" style="text;strokeColor=none;fillColor=none;align=left;verticalAlign=top;spacingLeft=4;spacingRight=4;overflow=hidden;rotatable=0;points=[[0,0.5],[1,0.5]];portConstraint=eastwest;whiteSpace=wrap;html=1;strokeWidth=2;fontSize=14;fontStyle=1;fontColor=default;" parent="Aqq4quywSJrEDL8EY6Lv-7" vertex="1">
          <mxGeometry y="60" width="350" height="26" as="geometry" />
        </mxCell>
        <mxCell id="Aqq4quywSJrEDL8EY6Lv-28" value="SPORT_OBJECT_ID, REF SportObjectType&lt;br style=&quot;font-size: 14px;&quot;&gt;" style="text;strokeColor=none;fillColor=none;align=left;verticalAlign=top;spacingLeft=4;spacingRight=4;overflow=hidden;rotatable=0;points=[[0,0.5],[1,0.5]];portConstraint=eastwest;whiteSpace=wrap;html=1;strokeWidth=2;fontSize=14;fontStyle=1;fontColor=default;" parent="Aqq4quywSJrEDL8EY6Lv-7" vertex="1">
          <mxGeometry y="86" width="350" height="26" as="geometry" />
        </mxCell>
        <mxCell id="Aqq4quywSJrEDL8EY6Lv-29" value="TEAM_HOME_ID, REF TeamType" style="text;strokeColor=none;fillColor=none;align=left;verticalAlign=top;spacingLeft=4;spacingRight=4;overflow=hidden;rotatable=0;points=[[0,0.5],[1,0.5]];portConstraint=eastwest;whiteSpace=wrap;html=1;strokeWidth=2;fontSize=14;fontStyle=1;fontColor=default;" parent="Aqq4quywSJrEDL8EY6Lv-7" vertex="1">
          <mxGeometry y="112" width="350" height="26" as="geometry" />
        </mxCell>
        <mxCell id="Aqq4quywSJrEDL8EY6Lv-30" value="TEAM_AWAY_ID, REF TeamType" style="text;strokeColor=none;fillColor=none;align=left;verticalAlign=top;spacingLeft=4;spacingRight=4;overflow=hidden;rotatable=0;points=[[0,0.5],[1,0.5]];portConstraint=eastwest;whiteSpace=wrap;html=1;strokeWidth=2;fontSize=14;fontStyle=1;fontColor=default;" parent="Aqq4quywSJrEDL8EY6Lv-7" vertex="1">
          <mxGeometry y="138" width="350" height="26" as="geometry" />
        </mxCell>
        <mxCell id="Aqq4quywSJrEDL8EY6Lv-31" value="SCORE_HOME, NUMBER" style="text;strokeColor=none;fillColor=none;align=left;verticalAlign=top;spacingLeft=4;spacingRight=4;overflow=hidden;rotatable=0;points=[[0,0.5],[1,0.5]];portConstraint=eastwest;whiteSpace=wrap;html=1;strokeWidth=2;fontSize=14;fontStyle=1;fontColor=default;" parent="Aqq4quywSJrEDL8EY6Lv-7" vertex="1">
          <mxGeometry y="164" width="350" height="26" as="geometry" />
        </mxCell>
        <mxCell id="Aqq4quywSJrEDL8EY6Lv-32" value="SCORE_AWAY, NUMBER" style="text;strokeColor=none;fillColor=none;align=left;verticalAlign=top;spacingLeft=4;spacingRight=4;overflow=hidden;rotatable=0;points=[[0,0.5],[1,0.5]];portConstraint=eastwest;whiteSpace=wrap;html=1;strokeWidth=2;fontSize=14;fontStyle=1;fontColor=default;" parent="Aqq4quywSJrEDL8EY6Lv-7" vertex="1">
          <mxGeometry y="190" width="350" height="26" as="geometry" />
        </mxCell>
        <mxCell id="Aqq4quywSJrEDL8EY6Lv-11" value="TeamType" style="swimlane;fontStyle=1;align=center;verticalAlign=top;childLayout=stackLayout;horizontal=1;startSize=26;horizontalStack=0;resizeParent=1;resizeParentMax=0;resizeLast=0;collapsible=1;marginBottom=0;whiteSpace=wrap;html=1;strokeWidth=3;" parent="1" vertex="1">
          <mxGeometry x="1140" y="261" width="250" height="340" as="geometry">
            <mxRectangle x="110" y="70" width="100" height="30" as="alternateBounds" />
          </mxGeometry>
        </mxCell>
        <mxCell id="Aqq4quywSJrEDL8EY6Lv-13" value="" style="line;strokeWidth=1;fillColor=none;align=left;verticalAlign=middle;spacingTop=-1;spacingLeft=3;spacingRight=3;rotatable=0;labelPosition=right;points=[];portConstraint=eastwest;strokeColor=inherit;" parent="Aqq4quywSJrEDL8EY6Lv-11" vertex="1">
          <mxGeometry y="26" width="250" height="8" as="geometry" />
        </mxCell>
        <mxCell id="Aqq4quywSJrEDL8EY6Lv-14" value="TEAM_ID, NUMBER" style="text;strokeColor=none;fillColor=none;align=left;verticalAlign=top;spacingLeft=4;spacingRight=4;overflow=hidden;rotatable=0;points=[[0,0.5],[1,0.5]];portConstraint=eastwest;whiteSpace=wrap;html=1;strokeWidth=2;fontSize=14;fontStyle=1;fontColor=default;" parent="Aqq4quywSJrEDL8EY6Lv-11" vertex="1">
          <mxGeometry y="34" width="250" height="34" as="geometry" />
        </mxCell>
        <mxCell id="CSeovrBtiq9lRLBdR88K-1" value="NAME, VARCHAR2(50)" style="text;strokeColor=none;fillColor=none;align=left;verticalAlign=top;spacingLeft=4;spacingRight=4;overflow=hidden;rotatable=0;points=[[0,0.5],[1,0.5]];portConstraint=eastwest;whiteSpace=wrap;html=1;strokeWidth=2;fontSize=14;fontStyle=1;fontColor=default;" parent="Aqq4quywSJrEDL8EY6Lv-11" vertex="1">
          <mxGeometry y="68" width="250" height="34" as="geometry" />
        </mxCell>
        <mxCell id="CSeovrBtiq9lRLBdR88K-2" value="WINS, NUMBER" style="text;strokeColor=none;fillColor=none;align=left;verticalAlign=top;spacingLeft=4;spacingRight=4;overflow=hidden;rotatable=0;points=[[0,0.5],[1,0.5]];portConstraint=eastwest;whiteSpace=wrap;html=1;strokeWidth=2;fontSize=14;fontStyle=1;fontColor=default;" parent="Aqq4quywSJrEDL8EY6Lv-11" vertex="1">
          <mxGeometry y="102" width="250" height="34" as="geometry" />
        </mxCell>
        <mxCell id="CSeovrBtiq9lRLBdR88K-3" value="LOSES, NUMBER" style="text;strokeColor=none;fillColor=none;align=left;verticalAlign=top;spacingLeft=4;spacingRight=4;overflow=hidden;rotatable=0;points=[[0,0.5],[1,0.5]];portConstraint=eastwest;whiteSpace=wrap;html=1;strokeWidth=2;fontSize=14;fontStyle=1;fontColor=default;" parent="Aqq4quywSJrEDL8EY6Lv-11" vertex="1">
          <mxGeometry y="136" width="250" height="34" as="geometry" />
        </mxCell>
        <mxCell id="CSeovrBtiq9lRLBdR88K-4" value="PLAYERS, PlayerListType&lt;br style=&quot;font-size: 14px;&quot;&gt;" style="text;strokeColor=none;fillColor=none;align=left;verticalAlign=top;spacingLeft=4;spacingRight=4;overflow=hidden;rotatable=0;points=[[0,0.5],[1,0.5]];portConstraint=eastwest;whiteSpace=wrap;html=1;strokeWidth=2;fontSize=14;fontStyle=1;fontColor=default;" parent="Aqq4quywSJrEDL8EY6Lv-11" vertex="1">
          <mxGeometry y="170" width="250" height="34" as="geometry" />
        </mxCell>
        <mxCell id="CSeovrBtiq9lRLBdR88K-5" value="SPONSORS, SponsorListType" style="text;strokeColor=none;fillColor=none;align=left;verticalAlign=top;spacingLeft=4;spacingRight=4;overflow=hidden;rotatable=0;points=[[0,0.5],[1,0.5]];portConstraint=eastwest;whiteSpace=wrap;html=1;strokeWidth=2;fontSize=14;fontStyle=1;fontColor=default;" parent="Aqq4quywSJrEDL8EY6Lv-11" vertex="1">
          <mxGeometry y="204" width="250" height="34" as="geometry" />
        </mxCell>
        <mxCell id="CSeovrBtiq9lRLBdR88K-6" value="WIN_PERCENTAGE, NUMBER" style="text;strokeColor=none;fillColor=none;align=left;verticalAlign=top;spacingLeft=4;spacingRight=4;overflow=hidden;rotatable=0;points=[[0,0.5],[1,0.5]];portConstraint=eastwest;whiteSpace=wrap;html=1;strokeWidth=2;fontSize=14;fontStyle=1;fontColor=default;" parent="Aqq4quywSJrEDL8EY6Lv-11" vertex="1">
          <mxGeometry y="238" width="250" height="34" as="geometry" />
        </mxCell>
        <mxCell id="CSeovrBtiq9lRLBdR88K-7" value="POINT_CONCEDED, NUMBER" style="text;strokeColor=none;fillColor=none;align=left;verticalAlign=top;spacingLeft=4;spacingRight=4;overflow=hidden;rotatable=0;points=[[0,0.5],[1,0.5]];portConstraint=eastwest;whiteSpace=wrap;html=1;strokeWidth=2;fontSize=14;fontStyle=1;fontColor=default;" parent="Aqq4quywSJrEDL8EY6Lv-11" vertex="1">
          <mxGeometry y="272" width="250" height="34" as="geometry" />
        </mxCell>
        <mxCell id="CSeovrBtiq9lRLBdR88K-8" value="POINTS_SCORED, NUMBER" style="text;strokeColor=none;fillColor=none;align=left;verticalAlign=top;spacingLeft=4;spacingRight=4;overflow=hidden;rotatable=0;points=[[0,0.5],[1,0.5]];portConstraint=eastwest;whiteSpace=wrap;html=1;strokeWidth=2;fontSize=14;fontStyle=1;fontColor=default;" parent="Aqq4quywSJrEDL8EY6Lv-11" vertex="1">
          <mxGeometry y="306" width="250" height="34" as="geometry" />
        </mxCell>
        <mxCell id="CSeovrBtiq9lRLBdR88K-9" value="PlayerStatsType" style="swimlane;fontStyle=1;align=center;verticalAlign=top;childLayout=stackLayout;horizontal=1;startSize=26;horizontalStack=0;resizeParent=1;resizeParentMax=0;resizeLast=0;collapsible=1;marginBottom=0;whiteSpace=wrap;html=1;strokeWidth=3;" parent="1" vertex="1">
          <mxGeometry x="680" y="336" width="310" height="340" as="geometry">
            <mxRectangle x="110" y="70" width="100" height="30" as="alternateBounds" />
          </mxGeometry>
        </mxCell>
        <mxCell id="CSeovrBtiq9lRLBdR88K-10" value="" style="line;strokeWidth=1;fillColor=none;align=left;verticalAlign=middle;spacingTop=-1;spacingLeft=3;spacingRight=3;rotatable=0;labelPosition=right;points=[];portConstraint=eastwest;strokeColor=inherit;" parent="CSeovrBtiq9lRLBdR88K-9" vertex="1">
          <mxGeometry y="26" width="310" height="8" as="geometry" />
        </mxCell>
        <mxCell id="CSeovrBtiq9lRLBdR88K-11" value="STATS_ID, NUMBER" style="text;strokeColor=none;fillColor=none;align=left;verticalAlign=top;spacingLeft=4;spacingRight=4;overflow=hidden;rotatable=0;points=[[0,0.5],[1,0.5]];portConstraint=eastwest;whiteSpace=wrap;html=1;strokeWidth=2;fontSize=14;fontStyle=1;fontColor=default;" parent="CSeovrBtiq9lRLBdR88K-9" vertex="1">
          <mxGeometry y="34" width="310" height="34" as="geometry" />
        </mxCell>
        <mxCell id="CSeovrBtiq9lRLBdR88K-12" value="PLAYER_ID, REF PlayerType" style="text;strokeColor=none;fillColor=none;align=left;verticalAlign=top;spacingLeft=4;spacingRight=4;overflow=hidden;rotatable=0;points=[[0,0.5],[1,0.5]];portConstraint=eastwest;whiteSpace=wrap;html=1;strokeWidth=2;fontSize=14;fontStyle=1;fontColor=default;" parent="CSeovrBtiq9lRLBdR88K-9" vertex="1">
          <mxGeometry y="68" width="310" height="34" as="geometry" />
        </mxCell>
        <mxCell id="CSeovrBtiq9lRLBdR88K-13" value="MATCH_ID, REF MatchType" style="text;strokeColor=none;fillColor=none;align=left;verticalAlign=top;spacingLeft=4;spacingRight=4;overflow=hidden;rotatable=0;points=[[0,0.5],[1,0.5]];portConstraint=eastwest;whiteSpace=wrap;html=1;strokeWidth=2;fontSize=14;fontStyle=1;fontColor=default;" parent="CSeovrBtiq9lRLBdR88K-9" vertex="1">
          <mxGeometry y="102" width="310" height="34" as="geometry" />
        </mxCell>
        <mxCell id="CSeovrBtiq9lRLBdR88K-14" value="MINUTES_PLAYED, NUMBER" style="text;strokeColor=none;fillColor=none;align=left;verticalAlign=top;spacingLeft=4;spacingRight=4;overflow=hidden;rotatable=0;points=[[0,0.5],[1,0.5]];portConstraint=eastwest;whiteSpace=wrap;html=1;strokeWidth=2;fontSize=14;fontStyle=1;fontColor=default;" parent="CSeovrBtiq9lRLBdR88K-9" vertex="1">
          <mxGeometry y="136" width="310" height="34" as="geometry" />
        </mxCell>
        <mxCell id="CSeovrBtiq9lRLBdR88K-15" value="TWO_POINTS_GOALS, NUMBER" style="text;strokeColor=none;fillColor=none;align=left;verticalAlign=top;spacingLeft=4;spacingRight=4;overflow=hidden;rotatable=0;points=[[0,0.5],[1,0.5]];portConstraint=eastwest;whiteSpace=wrap;html=1;strokeWidth=2;fontSize=14;fontStyle=1;fontColor=default;" parent="CSeovrBtiq9lRLBdR88K-9" vertex="1">
          <mxGeometry y="170" width="310" height="34" as="geometry" />
        </mxCell>
        <mxCell id="CSeovrBtiq9lRLBdR88K-16" value="ASSISTS, NUMBER" style="text;strokeColor=none;fillColor=none;align=left;verticalAlign=top;spacingLeft=4;spacingRight=4;overflow=hidden;rotatable=0;points=[[0,0.5],[1,0.5]];portConstraint=eastwest;whiteSpace=wrap;html=1;strokeWidth=2;fontSize=14;fontStyle=1;fontColor=default;" parent="CSeovrBtiq9lRLBdR88K-9" vertex="1">
          <mxGeometry y="204" width="310" height="34" as="geometry" />
        </mxCell>
        <mxCell id="CSeovrBtiq9lRLBdR88K-17" value="BLOCKS, NUMBER&lt;br style=&quot;font-size: 14px;&quot;&gt;" style="text;strokeColor=none;fillColor=none;align=left;verticalAlign=top;spacingLeft=4;spacingRight=4;overflow=hidden;rotatable=0;points=[[0,0.5],[1,0.5]];portConstraint=eastwest;whiteSpace=wrap;html=1;strokeWidth=2;fontSize=14;fontStyle=1;fontColor=default;" parent="CSeovrBtiq9lRLBdR88K-9" vertex="1">
          <mxGeometry y="238" width="310" height="34" as="geometry" />
        </mxCell>
        <mxCell id="CSeovrBtiq9lRLBdR88K-18" value="REBOUNDS, NUMBER" style="text;strokeColor=none;fillColor=none;align=left;verticalAlign=top;spacingLeft=4;spacingRight=4;overflow=hidden;rotatable=0;points=[[0,0.5],[1,0.5]];portConstraint=eastwest;whiteSpace=wrap;html=1;strokeWidth=2;fontSize=14;fontStyle=1;fontColor=default;" parent="CSeovrBtiq9lRLBdR88K-9" vertex="1">
          <mxGeometry y="272" width="310" height="34" as="geometry" />
        </mxCell>
        <mxCell id="CSeovrBtiq9lRLBdR88K-19" value="THREE_POINTS_GOALS, NUMBER" style="text;strokeColor=none;fillColor=none;align=left;verticalAlign=top;spacingLeft=4;spacingRight=4;overflow=hidden;rotatable=0;points=[[0,0.5],[1,0.5]];portConstraint=eastwest;whiteSpace=wrap;html=1;strokeWidth=2;fontSize=14;fontStyle=1;fontColor=default;" parent="CSeovrBtiq9lRLBdR88K-9" vertex="1">
          <mxGeometry y="306" width="310" height="34" as="geometry" />
        </mxCell>
        <mxCell id="CSeovrBtiq9lRLBdR88K-20" value="SponsorType" style="swimlane;fontStyle=1;align=center;verticalAlign=top;childLayout=stackLayout;horizontal=1;startSize=26;horizontalStack=0;resizeParent=1;resizeParentMax=0;resizeLast=0;collapsible=1;marginBottom=0;whiteSpace=wrap;html=1;strokeWidth=3;" parent="1" vertex="1">
          <mxGeometry x="-30" y="846" width="250" height="170" as="geometry">
            <mxRectangle x="110" y="70" width="100" height="30" as="alternateBounds" />
          </mxGeometry>
        </mxCell>
        <mxCell id="CSeovrBtiq9lRLBdR88K-21" value="" style="line;strokeWidth=1;fillColor=none;align=left;verticalAlign=middle;spacingTop=-1;spacingLeft=3;spacingRight=3;rotatable=0;labelPosition=right;points=[];portConstraint=eastwest;strokeColor=inherit;" parent="CSeovrBtiq9lRLBdR88K-20" vertex="1">
          <mxGeometry y="26" width="250" height="8" as="geometry" />
        </mxCell>
        <mxCell id="CSeovrBtiq9lRLBdR88K-22" value="SPONSOR_ID, NUMBER" style="text;strokeColor=none;fillColor=none;align=left;verticalAlign=top;spacingLeft=4;spacingRight=4;overflow=hidden;rotatable=0;points=[[0,0.5],[1,0.5]];portConstraint=eastwest;whiteSpace=wrap;html=1;strokeWidth=2;fontSize=14;fontStyle=1;fontColor=default;" parent="CSeovrBtiq9lRLBdR88K-20" vertex="1">
          <mxGeometry y="34" width="250" height="34" as="geometry" />
        </mxCell>
        <mxCell id="CSeovrBtiq9lRLBdR88K-23" value="SPONSOR_NAME, VARCHAR2(50)" style="text;strokeColor=none;fillColor=none;align=left;verticalAlign=top;spacingLeft=4;spacingRight=4;overflow=hidden;rotatable=0;points=[[0,0.5],[1,0.5]];portConstraint=eastwest;whiteSpace=wrap;html=1;strokeWidth=2;fontSize=14;fontStyle=1;fontColor=default;" parent="CSeovrBtiq9lRLBdR88K-20" vertex="1">
          <mxGeometry y="68" width="250" height="34" as="geometry" />
        </mxCell>
        <mxCell id="CSeovrBtiq9lRLBdR88K-24" value="TEAM_ID, REF TeamType" style="text;strokeColor=none;fillColor=none;align=left;verticalAlign=top;spacingLeft=4;spacingRight=4;overflow=hidden;rotatable=0;points=[[0,0.5],[1,0.5]];portConstraint=eastwest;whiteSpace=wrap;html=1;strokeWidth=2;fontSize=14;fontStyle=1;fontColor=default;" parent="CSeovrBtiq9lRLBdR88K-20" vertex="1">
          <mxGeometry y="102" width="250" height="34" as="geometry" />
        </mxCell>
        <mxCell id="CSeovrBtiq9lRLBdR88K-25" value="SPONSORSHIP_AMOUNT, NUMBER" style="text;strokeColor=none;fillColor=none;align=left;verticalAlign=top;spacingLeft=4;spacingRight=4;overflow=hidden;rotatable=0;points=[[0,0.5],[1,0.5]];portConstraint=eastwest;whiteSpace=wrap;html=1;strokeWidth=2;fontSize=14;fontStyle=1;fontColor=default;" parent="CSeovrBtiq9lRLBdR88K-20" vertex="1">
          <mxGeometry y="136" width="250" height="34" as="geometry" />
        </mxCell>
        <mxCell id="CSeovrBtiq9lRLBdR88K-28" value="SportObjectType" style="swimlane;fontStyle=1;align=center;verticalAlign=top;childLayout=stackLayout;horizontal=1;startSize=26;horizontalStack=0;resizeParent=1;resizeParentMax=0;resizeLast=0;collapsible=1;marginBottom=0;whiteSpace=wrap;html=1;strokeWidth=3;" parent="1" vertex="1">
          <mxGeometry x="-450" y="550" width="250" height="136" as="geometry">
            <mxRectangle x="110" y="70" width="100" height="30" as="alternateBounds" />
          </mxGeometry>
        </mxCell>
        <mxCell id="CSeovrBtiq9lRLBdR88K-29" value="" style="line;strokeWidth=1;fillColor=none;align=left;verticalAlign=middle;spacingTop=-1;spacingLeft=3;spacingRight=3;rotatable=0;labelPosition=right;points=[];portConstraint=eastwest;strokeColor=inherit;" parent="CSeovrBtiq9lRLBdR88K-28" vertex="1">
          <mxGeometry y="26" width="250" height="8" as="geometry" />
        </mxCell>
        <mxCell id="CSeovrBtiq9lRLBdR88K-30" value="OBJECT_ID, NUMBER" style="text;strokeColor=none;fillColor=none;align=left;verticalAlign=top;spacingLeft=4;spacingRight=4;overflow=hidden;rotatable=0;points=[[0,0.5],[1,0.5]];portConstraint=eastwest;whiteSpace=wrap;html=1;strokeWidth=2;fontSize=14;fontStyle=1;fontColor=default;" parent="CSeovrBtiq9lRLBdR88K-28" vertex="1">
          <mxGeometry y="34" width="250" height="34" as="geometry" />
        </mxCell>
        <mxCell id="CSeovrBtiq9lRLBdR88K-31" value="OBJECT_NAME, VARCHAR2(100);" style="text;strokeColor=none;fillColor=none;align=left;verticalAlign=top;spacingLeft=4;spacingRight=4;overflow=hidden;rotatable=0;points=[[0,0.5],[1,0.5]];portConstraint=eastwest;whiteSpace=wrap;html=1;strokeWidth=2;fontSize=14;fontStyle=1;fontColor=default;" parent="CSeovrBtiq9lRLBdR88K-28" vertex="1">
          <mxGeometry y="68" width="250" height="34" as="geometry" />
        </mxCell>
        <mxCell id="CSeovrBtiq9lRLBdR88K-32" value="OWNER_TEAM_ID, REF TeamType" style="text;strokeColor=none;fillColor=none;align=left;verticalAlign=top;spacingLeft=4;spacingRight=4;overflow=hidden;rotatable=0;points=[[0,0.5],[1,0.5]];portConstraint=eastwest;whiteSpace=wrap;html=1;strokeWidth=2;fontSize=14;fontStyle=1;fontColor=default;" parent="CSeovrBtiq9lRLBdR88K-28" vertex="1">
          <mxGeometry y="102" width="250" height="34" as="geometry" />
        </mxCell>
        <mxCell id="CSeovrBtiq9lRLBdR88K-45" value="PlayerListType" style="swimlane;fontStyle=1;align=center;verticalAlign=top;childLayout=stackLayout;horizontal=1;startSize=26;horizontalStack=0;resizeParent=1;resizeParentMax=0;resizeLast=0;collapsible=1;marginBottom=0;whiteSpace=wrap;html=1;strokeWidth=3;" parent="1" vertex="1">
          <mxGeometry x="620" y="125" width="190" height="68" as="geometry">
            <mxRectangle x="110" y="70" width="100" height="30" as="alternateBounds" />
          </mxGeometry>
        </mxCell>
        <mxCell id="CSeovrBtiq9lRLBdR88K-46" value="" style="line;strokeWidth=1;fillColor=none;align=left;verticalAlign=middle;spacingTop=-1;spacingLeft=3;spacingRight=3;rotatable=0;labelPosition=right;points=[];portConstraint=eastwest;strokeColor=inherit;" parent="CSeovrBtiq9lRLBdR88K-45" vertex="1">
          <mxGeometry y="26" width="190" height="8" as="geometry" />
        </mxCell>
        <mxCell id="CSeovrBtiq9lRLBdR88K-47" value="List&amp;lt;PlayerType&amp;gt; players" style="text;strokeColor=none;fillColor=none;align=left;verticalAlign=top;spacingLeft=4;spacingRight=4;overflow=hidden;rotatable=0;points=[[0,0.5],[1,0.5]];portConstraint=eastwest;whiteSpace=wrap;html=1;strokeWidth=2;fontSize=14;fontStyle=1;fontColor=default;" parent="CSeovrBtiq9lRLBdR88K-45" vertex="1">
          <mxGeometry y="34" width="190" height="34" as="geometry" />
        </mxCell>
        <mxCell id="CSeovrBtiq9lRLBdR88K-56" value="SponsorListType" style="swimlane;fontStyle=1;align=center;verticalAlign=top;childLayout=stackLayout;horizontal=1;startSize=26;horizontalStack=0;resizeParent=1;resizeParentMax=0;resizeLast=0;collapsible=1;marginBottom=0;whiteSpace=wrap;html=1;strokeWidth=3;" parent="1" vertex="1">
          <mxGeometry x="600" y="880" width="250" height="68" as="geometry">
            <mxRectangle x="110" y="70" width="100" height="30" as="alternateBounds" />
          </mxGeometry>
        </mxCell>
        <mxCell id="CSeovrBtiq9lRLBdR88K-57" value="" style="line;strokeWidth=1;fillColor=none;align=left;verticalAlign=middle;spacingTop=-1;spacingLeft=3;spacingRight=3;rotatable=0;labelPosition=right;points=[];portConstraint=eastwest;strokeColor=inherit;" parent="CSeovrBtiq9lRLBdR88K-56" vertex="1">
          <mxGeometry y="26" width="250" height="8" as="geometry" />
        </mxCell>
        <mxCell id="CSeovrBtiq9lRLBdR88K-60" value="List&amp;lt;SponsorType&amp;gt; sponsors" style="text;strokeColor=none;fillColor=none;align=left;verticalAlign=top;spacingLeft=4;spacingRight=4;overflow=hidden;rotatable=0;points=[[0,0.5],[1,0.5]];portConstraint=eastwest;whiteSpace=wrap;html=1;strokeWidth=2;fontSize=14;fontStyle=1;fontColor=default;" parent="CSeovrBtiq9lRLBdR88K-56" vertex="1">
          <mxGeometry y="34" width="250" height="34" as="geometry" />
        </mxCell>
        <mxCell id="CSeovrBtiq9lRLBdR88K-61" value="Use" style="endArrow=open;endSize=12;dashed=1;html=1;rounded=0;exitX=1;exitY=0.5;exitDx=0;exitDy=0;edgeStyle=orthogonalEdgeStyle;strokeWidth=4;" parent="1" source="Aqq4quywSJrEDL8EY6Lv-23" target="Aqq4quywSJrEDL8EY6Lv-11" edge="1">
          <mxGeometry width="160" relative="1" as="geometry">
            <mxPoint x="420" y="130" as="sourcePoint" />
            <mxPoint x="490" y="190" as="targetPoint" />
            <Array as="points">
              <mxPoint x="840" y="278" />
              <mxPoint x="840" y="278" />
            </Array>
          </mxGeometry>
        </mxCell>
        <mxCell id="CSeovrBtiq9lRLBdR88K-64" value="&lt;font style=&quot;font-size: 21px;&quot;&gt;Use&lt;/font&gt;" style="endArrow=open;endSize=12;dashed=1;html=1;rounded=0;exitX=0;exitY=0.5;exitDx=0;exitDy=0;entryX=0.601;entryY=1;entryDx=0;entryDy=0;entryPerimeter=0;edgeStyle=orthogonalEdgeStyle;strokeWidth=4;" parent="1" source="CSeovrBtiq9lRLBdR88K-12" target="Aqq4quywSJrEDL8EY6Lv-23" edge="1">
          <mxGeometry width="160" relative="1" as="geometry">
            <mxPoint x="420" y="330" as="sourcePoint" />
            <mxPoint x="580" y="330" as="targetPoint" />
          </mxGeometry>
        </mxCell>
        <mxCell id="CSeovrBtiq9lRLBdR88K-65" value="&lt;font style=&quot;font-size: 21px;&quot;&gt;Use&lt;/font&gt;" style="endArrow=open;endSize=12;dashed=1;html=1;rounded=0;edgeStyle=orthogonalEdgeStyle;strokeWidth=4;entryX=1;entryY=0.5;entryDx=0;entryDy=0;exitX=0;exitY=0.5;exitDx=0;exitDy=0;" parent="1" source="CSeovrBtiq9lRLBdR88K-17" target="Aqq4quywSJrEDL8EY6Lv-28" edge="1">
          <mxGeometry width="160" relative="1" as="geometry">
            <mxPoint x="420" y="530" as="sourcePoint" />
            <mxPoint x="200" y="520" as="targetPoint" />
            <Array as="points">
              <mxPoint x="680" y="599" />
            </Array>
          </mxGeometry>
        </mxCell>
        <mxCell id="CSeovrBtiq9lRLBdR88K-67" value="&lt;font style=&quot;font-size: 21px;&quot;&gt;Use&lt;/font&gt;" style="endArrow=open;endSize=12;dashed=1;html=1;rounded=0;edgeStyle=orthogonalEdgeStyle;strokeWidth=4;" parent="1" source="CSeovrBtiq9lRLBdR88K-47" target="Aqq4quywSJrEDL8EY6Lv-1" edge="1">
          <mxGeometry width="160" relative="1" as="geometry">
            <mxPoint x="350" y="80" as="sourcePoint" />
            <mxPoint x="1050" y="129" as="targetPoint" />
          </mxGeometry>
        </mxCell>
        <mxCell id="CSeovrBtiq9lRLBdR88K-69" value="&lt;font style=&quot;font-size: 21px;&quot;&gt;Use&lt;/font&gt;" style="endArrow=open;endSize=12;dashed=1;html=1;rounded=0;edgeStyle=orthogonalEdgeStyle;strokeWidth=4;" parent="1" edge="1">
          <mxGeometry width="160" relative="1" as="geometry">
            <mxPoint x="-202" y="610" as="sourcePoint" />
            <mxPoint x="60" y="630" as="targetPoint" />
            <Array as="points">
              <mxPoint x="-202" y="630" />
            </Array>
          </mxGeometry>
        </mxCell>
        <mxCell id="CSeovrBtiq9lRLBdR88K-71" value="&lt;font style=&quot;font-size: 21px;&quot;&gt;Use&lt;/font&gt;" style="endArrow=open;endSize=12;dashed=1;html=1;rounded=0;edgeStyle=orthogonalEdgeStyle;entryX=1;entryY=0.5;entryDx=0;entryDy=0;exitX=0.598;exitY=1.098;exitDx=0;exitDy=0;exitPerimeter=0;strokeWidth=4;" parent="1" source="CSeovrBtiq9lRLBdR88K-8" target="CSeovrBtiq9lRLBdR88K-56" edge="1">
          <mxGeometry width="160" relative="1" as="geometry">
            <mxPoint x="1330" y="620" as="sourcePoint" />
            <mxPoint x="840" y="830" as="targetPoint" />
            <Array as="points">
              <mxPoint x="1290" y="914" />
            </Array>
          </mxGeometry>
        </mxCell>
        <mxCell id="CSeovrBtiq9lRLBdR88K-72" value="Use" style="endArrow=open;endSize=12;dashed=1;html=1;rounded=0;edgeStyle=orthogonalEdgeStyle;strokeWidth=4;" parent="1" source="CSeovrBtiq9lRLBdR88K-60" target="CSeovrBtiq9lRLBdR88K-20" edge="1">
          <mxGeometry width="160" relative="1" as="geometry">
            <mxPoint x="1125" y="720" as="sourcePoint" />
            <mxPoint x="1060" y="1089" as="targetPoint" />
          </mxGeometry>
        </mxCell>
        <mxCell id="CSeovrBtiq9lRLBdR88K-73" value="&lt;font style=&quot;font-size: 21px;&quot;&gt;Use&lt;/font&gt;" style="endArrow=open;endSize=12;dashed=1;html=1;rounded=0;edgeStyle=orthogonalEdgeStyle;exitX=0.5;exitY=0;exitDx=0;exitDy=0;strokeWidth=4;" parent="1" source="Aqq4quywSJrEDL8EY6Lv-11" target="CSeovrBtiq9lRLBdR88K-47" edge="1">
          <mxGeometry width="160" relative="1" as="geometry">
            <mxPoint x="1230" y="470" as="sourcePoint" />
            <mxPoint x="860" y="100" as="targetPoint" />
            <Array as="points">
              <mxPoint x="1310" y="176" />
            </Array>
          </mxGeometry>
        </mxCell>
        <mxCell id="CSeovrBtiq9lRLBdR88K-74" value="&lt;font style=&quot;font-size: 21px;&quot;&gt;Use&lt;/font&gt;" style="endArrow=open;endSize=12;dashed=1;html=1;rounded=0;edgeStyle=orthogonalEdgeStyle;exitX=1;exitY=0.5;exitDx=0;exitDy=0;strokeWidth=4;" parent="1" source="Aqq4quywSJrEDL8EY6Lv-31" target="Aqq4quywSJrEDL8EY6Lv-11" edge="1">
          <mxGeometry width="160" relative="1" as="geometry">
            <mxPoint x="-135" y="730" as="sourcePoint" />
            <mxPoint x="318" y="700" as="targetPoint" />
            <Array as="points">
              <mxPoint x="450" y="677" />
              <mxPoint x="450" y="760" />
              <mxPoint x="1080" y="760" />
              <mxPoint x="1080" y="430" />
            </Array>
          </mxGeometry>
        </mxCell>
        <mxCell id="CSeovrBtiq9lRLBdR88K-75" value="&lt;font style=&quot;font-size: 21px;&quot;&gt;Use&lt;/font&gt;" style="endArrow=open;endSize=12;dashed=1;html=1;rounded=0;edgeStyle=orthogonalEdgeStyle;strokeWidth=4;exitX=0.396;exitY=1.082;exitDx=0;exitDy=0;exitPerimeter=0;" parent="1" source="CSeovrBtiq9lRLBdR88K-32" target="CSeovrBtiq9lRLBdR88K-8" edge="1">
          <mxGeometry width="160" relative="1" as="geometry">
            <mxPoint x="-370" y="800" as="sourcePoint" />
            <mxPoint x="1240" y="690" as="targetPoint" />
            <Array as="points">
              <mxPoint x="-351" y="800" />
              <mxPoint x="1170" y="800" />
            </Array>
          </mxGeometry>
        </mxCell>
        <mxCell id="CSeovrBtiq9lRLBdR88K-80" value="&lt;font style=&quot;font-size: 21px;&quot;&gt;Use&lt;/font&gt;" style="endArrow=open;endSize=12;dashed=1;html=1;rounded=0;edgeStyle=orthogonalEdgeStyle;exitX=1;exitY=0.5;exitDx=0;exitDy=0;strokeWidth=4;entryX=0.948;entryY=0.994;entryDx=0;entryDy=0;entryPerimeter=0;" parent="1" target="CSeovrBtiq9lRLBdR88K-8" edge="1">
          <mxGeometry width="160" relative="1" as="geometry">
            <mxPoint x="220" y="1005" as="sourcePoint" />
            <mxPoint x="1393" y="610" as="targetPoint" />
            <Array as="points">
              <mxPoint x="220" y="1020" />
              <mxPoint x="1377" y="1020" />
            </Array>
          </mxGeometry>
        </mxCell>
      </root>
    </mxGraphModel>
  </diagram>
</mxfile>
